<mxfile host="65bd71144e" agent="Mozilla/5.0 (Windows NT 10.0; Win64; x64) AppleWebKit/537.36 (KHTML, like Gecko) Code/1.102.1 Chrome/134.0.6998.205 Electron/35.6.0 Safari/537.36" version="28.0.6">
    <diagram id="_vuZQBKyEg9dJw62g8Es" name="ページ1">
        <mxGraphModel dx="738" dy="568" grid="1" gridSize="10" guides="1" tooltips="1" connect="1" arrows="1" fold="1" page="1" pageScale="1" pageWidth="827" pageHeight="1169" math="0" shadow="0">
            <root>
                <mxCell id="0"/>
                <mxCell id="1" parent="0"/>
                <mxCell id="156" value="" style="group" parent="1" vertex="1" connectable="0">
                    <mxGeometry x="90" y="960" width="680" height="150" as="geometry"/>
                </mxCell>
                <mxCell id="157" value="" style="endArrow=none;dashed=1;html=1;strokeWidth=2;rounded=0;curved=0;fontColor=#99FFFF;strokeColor=#3333FF;" parent="156" target="158" edge="1">
                    <mxGeometry width="50" height="50" relative="1" as="geometry">
                        <mxPoint x="680" as="sourcePoint"/>
                        <mxPoint x="680" y="17.142857142857142" as="targetPoint"/>
                        <Array as="points">
                            <mxPoint x="680" y="140"/>
                            <mxPoint x="10" y="140"/>
                            <mxPoint x="10" y="120"/>
                        </Array>
                    </mxGeometry>
                </mxCell>
                <mxCell id="158" value="管理者ログイン処理" style="rounded=0;whiteSpace=wrap;html=1;fillColor=#99CCFF;" parent="156" vertex="1">
                    <mxGeometry width="20" height="140" as="geometry"/>
                </mxCell>
                <mxCell id="159" value="" style="endArrow=none;dashed=1;html=1;strokeWidth=2;rounded=0;curved=0;fontColor=#99FFFF;strokeColor=#3333FF;exitX=0.5;exitY=0;exitDx=0;exitDy=0;" parent="156" source="158" edge="1">
                    <mxGeometry width="50" height="50" relative="1" as="geometry">
                        <mxPoint x="10" y="17.142857142857142" as="sourcePoint"/>
                        <mxPoint x="680" as="targetPoint"/>
                        <Array as="points">
                            <mxPoint x="10"/>
                        </Array>
                    </mxGeometry>
                </mxCell>
                <mxCell id="85" value="管理者ページからログイン情報を入力" style="text;html=1;align=center;verticalAlign=middle;resizable=0;points=[];autosize=1;strokeColor=none;fillColor=none;" parent="156" vertex="1">
                    <mxGeometry x="91" y="12.857142857142858" width="230" height="30" as="geometry"/>
                </mxCell>
                <mxCell id="84" value="" style="endArrow=classic;html=1;" parent="156" edge="1">
                    <mxGeometry width="50" height="50" relative="1" as="geometry">
                        <mxPoint x="82.5" y="36.85714285714286" as="sourcePoint"/>
                        <mxPoint x="328.5" y="36.85714285714286" as="targetPoint"/>
                    </mxGeometry>
                </mxCell>
                <mxCell id="91" value="" style="endArrow=classic;html=1;" parent="156" edge="1">
                    <mxGeometry width="50" height="50" relative="1" as="geometry">
                        <mxPoint x="342.5" y="54.004571428571474" as="sourcePoint"/>
                        <mxPoint x="573.75" y="54.004571428571474" as="targetPoint"/>
                    </mxGeometry>
                </mxCell>
                <mxCell id="90" value="ログイン情報を照会" style="text;html=1;align=center;verticalAlign=middle;resizable=0;points=[];autosize=1;strokeColor=none;fillColor=none;" parent="156" vertex="1">
                    <mxGeometry x="395" y="30.004571428571474" width="130" height="30" as="geometry"/>
                </mxCell>
                <mxCell id="95" value="管理者ページにリダイレクト" style="text;html=1;align=center;verticalAlign=middle;resizable=0;points=[];autosize=1;strokeColor=none;fillColor=none;" parent="156" vertex="1">
                    <mxGeometry x="116" y="80" width="180" height="30" as="geometry"/>
                </mxCell>
                <mxCell id="94" value="" style="endArrow=open;endSize=12;dashed=1;html=1;" parent="156" edge="1">
                    <mxGeometry width="160" relative="1" as="geometry">
                        <mxPoint x="321" y="104.00000000000001" as="sourcePoint"/>
                        <mxPoint x="81" y="104.00000000000001" as="targetPoint"/>
                    </mxGeometry>
                </mxCell>
                <mxCell id="86" value="" style="rounded=0;whiteSpace=wrap;html=1;" parent="156" vertex="1">
                    <mxGeometry x="327.5" y="6.43" width="15" height="113.57" as="geometry"/>
                </mxCell>
                <mxCell id="88" value="" style="rounded=0;whiteSpace=wrap;html=1;" parent="156" vertex="1">
                    <mxGeometry x="577.25" y="30" width="15" height="70" as="geometry"/>
                </mxCell>
                <mxCell id="93" value="" style="endArrow=open;endSize=12;dashed=1;html=1;" parent="156" edge="1">
                    <mxGeometry width="160" relative="1" as="geometry">
                        <mxPoint x="577.25" y="90.5" as="sourcePoint"/>
                        <mxPoint x="349.75" y="90.5" as="targetPoint"/>
                    </mxGeometry>
                </mxCell>
                <mxCell id="92" value="認証" style="text;html=1;align=center;verticalAlign=middle;resizable=0;points=[];autosize=1;strokeColor=none;fillColor=none;" parent="156" vertex="1">
                    <mxGeometry x="442.25" y="60" width="50" height="30" as="geometry"/>
                </mxCell>
                <mxCell id="128" value="" style="endArrow=none;dashed=1;html=1;strokeWidth=2;rounded=0;curved=0;fontColor=#99FFFF;strokeColor=#3333FF;" parent="1" source="129" edge="1">
                    <mxGeometry width="50" height="50" relative="1" as="geometry">
                        <mxPoint x="770" y="140" as="sourcePoint"/>
                        <mxPoint x="770" y="140" as="targetPoint"/>
                        <Array as="points">
                            <mxPoint x="100" y="140"/>
                        </Array>
                    </mxGeometry>
                </mxCell>
                <mxCell id="6" value="" style="endArrow=none;dashed=1;html=1;entryX=0.5;entryY=1;entryDx=0;entryDy=0;" parent="1" target="9" edge="1">
                    <mxGeometry width="50" height="50" relative="1" as="geometry">
                        <mxPoint x="165" y="1570" as="sourcePoint"/>
                        <mxPoint x="164.5" y="190" as="targetPoint"/>
                    </mxGeometry>
                </mxCell>
                <mxCell id="7" value="" style="endArrow=none;dashed=1;html=1;entryX=0.5;entryY=1;entryDx=0;entryDy=0;" parent="1" source="15" target="10" edge="1">
                    <mxGeometry width="50" height="50" relative="1" as="geometry">
                        <mxPoint x="424.5" y="1150" as="sourcePoint"/>
                        <mxPoint x="424.5" y="200" as="targetPoint"/>
                    </mxGeometry>
                </mxCell>
                <mxCell id="8" value="" style="endArrow=none;dashed=1;html=1;entryX=0.5;entryY=1;entryDx=0;entryDy=0;" parent="1" source="18" target="11" edge="1">
                    <mxGeometry width="50" height="50" relative="1" as="geometry">
                        <mxPoint x="674.5" y="1109" as="sourcePoint"/>
                        <mxPoint x="675" y="140" as="targetPoint"/>
                    </mxGeometry>
                </mxCell>
                <mxCell id="9" value="ユーザー" style="rounded=1;whiteSpace=wrap;strokeColor=#FF9933;strokeWidth=2;fontStyle=1;fontSize=18;fontColor=#FF9933;" parent="1" vertex="1">
                    <mxGeometry x="70" y="80" width="190" height="40" as="geometry"/>
                </mxCell>
                <mxCell id="10" value="WEBサイト" style="rounded=1;whiteSpace=wrap;strokeColor=#FF9933;strokeWidth=2;fontSize=18;fontStyle=1;fontColor=#FF9933;" parent="1" vertex="1">
                    <mxGeometry x="330" y="80" width="190" height="40" as="geometry"/>
                </mxCell>
                <mxCell id="11" value="サーバー" style="rounded=1;whiteSpace=wrap;strokeColor=#FF9933;strokeWidth=2;fontStyle=1;fontSize=18;fontColor=#FF9933;" parent="1" vertex="1">
                    <mxGeometry x="580" y="80" width="190" height="40" as="geometry"/>
                </mxCell>
                <mxCell id="16" value="" style="endArrow=none;dashed=1;html=1;entryX=0.5;entryY=1;entryDx=0;entryDy=0;" parent="1" source="30" target="15" edge="1">
                    <mxGeometry width="50" height="50" relative="1" as="geometry">
                        <mxPoint x="424.5" y="1150" as="sourcePoint"/>
                        <mxPoint x="425" y="120" as="targetPoint"/>
                    </mxGeometry>
                </mxCell>
                <mxCell id="15" value="" style="rounded=0;whiteSpace=wrap;html=1;" parent="1" vertex="1">
                    <mxGeometry x="417.5" y="160" width="15" height="150" as="geometry"/>
                </mxCell>
                <mxCell id="17" value="商品サイトへアクセス" style="text;html=1;align=center;verticalAlign=middle;resizable=0;points=[];autosize=1;strokeColor=none;fillColor=none;" parent="1" vertex="1">
                    <mxGeometry x="225" y="160" width="140" height="30" as="geometry"/>
                </mxCell>
                <mxCell id="19" value="" style="endArrow=none;dashed=1;html=1;entryX=0.5;entryY=1;entryDx=0;entryDy=0;" parent="1" source="51" target="18" edge="1">
                    <mxGeometry width="50" height="50" relative="1" as="geometry">
                        <mxPoint x="674.5" y="1109" as="sourcePoint"/>
                        <mxPoint x="675" y="120" as="targetPoint"/>
                    </mxGeometry>
                </mxCell>
                <mxCell id="18" value="" style="rounded=0;whiteSpace=wrap;html=1;" parent="1" vertex="1">
                    <mxGeometry x="667.5" y="185" width="15" height="98" as="geometry"/>
                </mxCell>
                <mxCell id="21" value="サーバーにアクセス" style="text;html=1;align=center;verticalAlign=middle;resizable=0;points=[];autosize=1;strokeColor=none;fillColor=none;" parent="1" vertex="1">
                    <mxGeometry x="485" y="180" width="130" height="30" as="geometry"/>
                </mxCell>
                <mxCell id="24" value="HTMLファイルを返す" style="text;html=1;align=center;verticalAlign=middle;resizable=0;points=[];autosize=1;strokeColor=none;fillColor=none;" parent="1" vertex="1">
                    <mxGeometry x="480" y="228" width="140" height="30" as="geometry"/>
                </mxCell>
                <mxCell id="27" value="商品サイトを表示" style="text;html=1;align=center;verticalAlign=middle;resizable=0;points=[];autosize=1;strokeColor=none;fillColor=none;" parent="1" vertex="1">
                    <mxGeometry x="235" y="250" width="120" height="30" as="geometry"/>
                </mxCell>
                <mxCell id="29" value="ログイン情報を入力" style="text;html=1;align=center;verticalAlign=middle;resizable=0;points=[];autosize=1;strokeColor=none;fillColor=none;" parent="1" vertex="1">
                    <mxGeometry x="230" y="330" width="130" height="30" as="geometry"/>
                </mxCell>
                <mxCell id="31" value="" style="endArrow=none;dashed=1;html=1;entryX=0.5;entryY=1;entryDx=0;entryDy=0;" parent="1" source="60" target="30" edge="1">
                    <mxGeometry width="50" height="50" relative="1" as="geometry">
                        <mxPoint x="424.5" y="1150" as="sourcePoint"/>
                        <mxPoint x="425" y="318" as="targetPoint"/>
                    </mxGeometry>
                </mxCell>
                <mxCell id="30" value="" style="rounded=0;whiteSpace=wrap;html=1;" parent="1" vertex="1">
                    <mxGeometry x="417.5" y="350" width="15" height="110" as="geometry"/>
                </mxCell>
                <mxCell id="32" value="" style="rounded=0;whiteSpace=wrap;html=1;" parent="1" vertex="1">
                    <mxGeometry x="667.5" y="370" width="15" height="80" as="geometry"/>
                </mxCell>
                <mxCell id="34" value="ログイン情報を照会" style="text;html=1;align=center;verticalAlign=middle;resizable=0;points=[];autosize=1;strokeColor=none;fillColor=none;" parent="1" vertex="1">
                    <mxGeometry x="485" y="360" width="130" height="30" as="geometry"/>
                </mxCell>
                <mxCell id="36" value="認証" style="text;html=1;align=center;verticalAlign=middle;resizable=0;points=[];autosize=1;strokeColor=none;fillColor=none;" parent="1" vertex="1">
                    <mxGeometry x="525" y="398.5" width="50" height="30" as="geometry"/>
                </mxCell>
                <mxCell id="37" value="" style="endArrow=classic;html=1;" parent="1" edge="1">
                    <mxGeometry width="50" height="50" relative="1" as="geometry">
                        <mxPoint x="170" y="366" as="sourcePoint"/>
                        <mxPoint x="416" y="366" as="targetPoint"/>
                    </mxGeometry>
                </mxCell>
                <mxCell id="38" value="" style="endArrow=classic;html=1;" parent="1" edge="1">
                    <mxGeometry width="50" height="50" relative="1" as="geometry">
                        <mxPoint x="432.5" y="390" as="sourcePoint"/>
                        <mxPoint x="670" y="390" as="targetPoint"/>
                    </mxGeometry>
                </mxCell>
                <mxCell id="40" value="" style="endArrow=open;endSize=12;dashed=1;html=1;" parent="1" edge="1">
                    <mxGeometry width="160" relative="1" as="geometry">
                        <mxPoint x="416" y="280" as="sourcePoint"/>
                        <mxPoint x="170" y="280" as="targetPoint"/>
                    </mxGeometry>
                </mxCell>
                <mxCell id="41" value="" style="endArrow=classic;html=1;" parent="1" edge="1">
                    <mxGeometry width="50" height="50" relative="1" as="geometry">
                        <mxPoint x="164" y="191" as="sourcePoint"/>
                        <mxPoint x="414" y="191" as="targetPoint"/>
                    </mxGeometry>
                </mxCell>
                <mxCell id="42" value="" style="endArrow=classic;html=1;entryX=0;entryY=0.25;entryDx=0;entryDy=0;" parent="1" target="18" edge="1">
                    <mxGeometry width="50" height="50" relative="1" as="geometry">
                        <mxPoint x="440" y="210" as="sourcePoint"/>
                        <mxPoint x="330" y="250" as="targetPoint"/>
                    </mxGeometry>
                </mxCell>
                <mxCell id="43" value="" style="endArrow=open;endSize=12;dashed=1;html=1;" parent="1" edge="1">
                    <mxGeometry width="160" relative="1" as="geometry">
                        <mxPoint x="660" y="260" as="sourcePoint"/>
                        <mxPoint x="440" y="260" as="targetPoint"/>
                    </mxGeometry>
                </mxCell>
                <mxCell id="44" value="" style="endArrow=open;endSize=12;dashed=1;html=1;" parent="1" edge="1">
                    <mxGeometry width="160" relative="1" as="geometry">
                        <mxPoint x="660" y="430.5" as="sourcePoint"/>
                        <mxPoint x="432.5" y="430.5" as="targetPoint"/>
                    </mxGeometry>
                </mxCell>
                <mxCell id="45" value="" style="endArrow=open;endSize=12;dashed=1;html=1;" parent="1" edge="1">
                    <mxGeometry width="160" relative="1" as="geometry">
                        <mxPoint x="410" y="450" as="sourcePoint"/>
                        <mxPoint x="170" y="450" as="targetPoint"/>
                    </mxGeometry>
                </mxCell>
                <mxCell id="46" value="トップページにリダイレクト" style="text;html=1;align=center;verticalAlign=middle;resizable=0;points=[];autosize=1;strokeColor=none;fillColor=none;" parent="1" vertex="1">
                    <mxGeometry x="205" y="410" width="180" height="30" as="geometry"/>
                </mxCell>
                <mxCell id="47" value="" style="endArrow=classic;html=1;" parent="1" edge="1">
                    <mxGeometry width="50" height="50" relative="1" as="geometry">
                        <mxPoint x="167.5" y="520" as="sourcePoint"/>
                        <mxPoint x="413.5" y="520" as="targetPoint"/>
                    </mxGeometry>
                </mxCell>
                <mxCell id="48" value="カートに商品を追加" style="text;html=1;align=center;verticalAlign=middle;resizable=0;points=[];autosize=1;strokeColor=none;fillColor=none;" parent="1" vertex="1">
                    <mxGeometry x="229.75" y="488" width="130" height="30" as="geometry"/>
                </mxCell>
                <mxCell id="49" value="" style="rounded=0;whiteSpace=wrap;html=1;" parent="1" vertex="1">
                    <mxGeometry x="417" y="510" width="15" height="120" as="geometry"/>
                </mxCell>
                <mxCell id="50" value="" style="endArrow=classic;html=1;" parent="1" edge="1">
                    <mxGeometry width="50" height="50" relative="1" as="geometry">
                        <mxPoint x="439.5" y="540" as="sourcePoint"/>
                        <mxPoint x="659.5" y="540" as="targetPoint"/>
                    </mxGeometry>
                </mxCell>
                <mxCell id="52" value="" style="endArrow=none;dashed=1;html=1;entryX=0.5;entryY=1;entryDx=0;entryDy=0;" parent="1" source="62" target="51" edge="1">
                    <mxGeometry width="50" height="50" relative="1" as="geometry">
                        <mxPoint x="674.5" y="1109" as="sourcePoint"/>
                        <mxPoint x="675" y="300" as="targetPoint"/>
                    </mxGeometry>
                </mxCell>
                <mxCell id="51" value="" style="rounded=0;whiteSpace=wrap;html=1;" parent="1" vertex="1">
                    <mxGeometry x="667" y="518" width="15" height="92" as="geometry"/>
                </mxCell>
                <mxCell id="53" value="データベースにレコード追加" style="text;html=1;align=center;verticalAlign=middle;resizable=0;points=[];autosize=1;strokeColor=none;fillColor=none;" parent="1" vertex="1">
                    <mxGeometry x="459.5" y="510" width="180" height="30" as="geometry"/>
                </mxCell>
                <mxCell id="54" value="" style="endArrow=open;endSize=12;dashed=1;html=1;" parent="1" edge="1">
                    <mxGeometry width="160" relative="1" as="geometry">
                        <mxPoint x="663.25" y="590" as="sourcePoint"/>
                        <mxPoint x="435.75" y="590" as="targetPoint"/>
                    </mxGeometry>
                </mxCell>
                <mxCell id="55" value="カート情報を更新" style="text;html=1;align=center;verticalAlign=middle;resizable=0;points=[];autosize=1;strokeColor=none;fillColor=none;" parent="1" vertex="1">
                    <mxGeometry x="489.5" y="558" width="120" height="30" as="geometry"/>
                </mxCell>
                <mxCell id="56" value="" style="endArrow=open;endSize=12;dashed=1;html=1;" parent="1" edge="1">
                    <mxGeometry width="160" relative="1" as="geometry">
                        <mxPoint x="409.5" y="610" as="sourcePoint"/>
                        <mxPoint x="169.5" y="610" as="targetPoint"/>
                    </mxGeometry>
                </mxCell>
                <mxCell id="57" value="追加情報を表示" style="text;html=1;align=center;verticalAlign=middle;resizable=0;points=[];autosize=1;strokeColor=none;fillColor=none;" parent="1" vertex="1">
                    <mxGeometry x="239.5" y="580" width="110" height="30" as="geometry"/>
                </mxCell>
                <mxCell id="58" value="" style="endArrow=classic;html=1;" parent="1" edge="1">
                    <mxGeometry width="50" height="50" relative="1" as="geometry">
                        <mxPoint x="171.25" y="680" as="sourcePoint"/>
                        <mxPoint x="417.25" y="680" as="targetPoint"/>
                    </mxGeometry>
                </mxCell>
                <mxCell id="59" value="注文ボタンをクリック" style="text;html=1;align=center;verticalAlign=middle;resizable=0;points=[];autosize=1;strokeColor=none;fillColor=none;" parent="1" vertex="1">
                    <mxGeometry x="224.75" y="650" width="140" height="30" as="geometry"/>
                </mxCell>
                <mxCell id="61" value="" style="endArrow=none;dashed=1;html=1;entryX=0.5;entryY=1;entryDx=0;entryDy=0;" parent="1" source="72" target="60" edge="1">
                    <mxGeometry width="50" height="50" relative="1" as="geometry">
                        <mxPoint x="424.5" y="1150" as="sourcePoint"/>
                        <mxPoint x="425" y="460" as="targetPoint"/>
                    </mxGeometry>
                </mxCell>
                <mxCell id="60" value="" style="rounded=0;whiteSpace=wrap;html=1;" parent="1" vertex="1">
                    <mxGeometry x="417.5" y="660" width="15" height="120" as="geometry"/>
                </mxCell>
                <mxCell id="63" value="" style="endArrow=none;dashed=1;html=1;entryX=0.5;entryY=1;entryDx=0;entryDy=0;" parent="1" source="88" target="62" edge="1">
                    <mxGeometry width="50" height="50" relative="1" as="geometry">
                        <mxPoint x="674.5" y="1109" as="sourcePoint"/>
                        <mxPoint x="675" y="602" as="targetPoint"/>
                    </mxGeometry>
                </mxCell>
                <mxCell id="62" value="" style="rounded=0;whiteSpace=wrap;html=1;" parent="1" vertex="1">
                    <mxGeometry x="667.25" y="670" width="15" height="90" as="geometry"/>
                </mxCell>
                <mxCell id="64" value="" style="endArrow=classic;html=1;entryX=1.02;entryY=0.947;entryDx=0;entryDy=0;entryPerimeter=0;" parent="1" target="65" edge="1">
                    <mxGeometry width="50" height="50" relative="1" as="geometry">
                        <mxPoint x="436.25" y="700" as="sourcePoint"/>
                        <mxPoint x="670" y="700" as="targetPoint"/>
                    </mxGeometry>
                </mxCell>
                <mxCell id="65" value="注文ページ表示用の仮合計金額算出" style="text;html=1;align=center;verticalAlign=middle;resizable=0;points=[];autosize=1;strokeColor=none;fillColor=none;" parent="1" vertex="1">
                    <mxGeometry x="440" y="670" width="220" height="30" as="geometry"/>
                </mxCell>
                <mxCell id="66" value="" style="endArrow=open;endSize=12;dashed=1;html=1;" parent="1" edge="1">
                    <mxGeometry width="160" relative="1" as="geometry">
                        <mxPoint x="663.5" y="745.5" as="sourcePoint"/>
                        <mxPoint x="436" y="745.5" as="targetPoint"/>
                    </mxGeometry>
                </mxCell>
                <mxCell id="67" value="注文ページへリダイレクト" style="text;html=1;align=center;verticalAlign=middle;resizable=0;points=[];autosize=1;strokeColor=none;fillColor=none;" parent="1" vertex="1">
                    <mxGeometry x="464.75" y="713.5" width="170" height="30" as="geometry"/>
                </mxCell>
                <mxCell id="68" value="" style="endArrow=open;endSize=12;dashed=1;html=1;" parent="1" edge="1">
                    <mxGeometry width="160" relative="1" as="geometry">
                        <mxPoint x="408.75" y="763" as="sourcePoint"/>
                        <mxPoint x="170" y="763" as="targetPoint"/>
                    </mxGeometry>
                </mxCell>
                <mxCell id="69" value="注文合計金額を表示" style="text;html=1;align=center;verticalAlign=middle;resizable=0;points=[];autosize=1;strokeColor=none;fillColor=none;" parent="1" vertex="1">
                    <mxGeometry x="230" y="730" width="130" height="30" as="geometry"/>
                </mxCell>
                <mxCell id="73" value="" style="endArrow=none;dashed=1;html=1;entryX=0.5;entryY=1;entryDx=0;entryDy=0;" parent="1" source="86" target="72" edge="1">
                    <mxGeometry width="50" height="50" relative="1" as="geometry">
                        <mxPoint x="424.5" y="1150" as="sourcePoint"/>
                        <mxPoint x="425" y="780" as="targetPoint"/>
                    </mxGeometry>
                </mxCell>
                <mxCell id="74" value="" style="rounded=0;whiteSpace=wrap;html=1;" parent="1" vertex="1">
                    <mxGeometry x="667.25" y="830" width="15" height="80" as="geometry"/>
                </mxCell>
                <mxCell id="77" value="" style="endArrow=open;endSize=12;dashed=1;html=1;" parent="1" edge="1">
                    <mxGeometry width="160" relative="1" as="geometry">
                        <mxPoint x="663.5" y="892" as="sourcePoint"/>
                        <mxPoint x="436" y="892" as="targetPoint"/>
                    </mxGeometry>
                </mxCell>
                <mxCell id="78" value="注文処理が完了したことを通知" style="text;html=1;align=center;verticalAlign=middle;resizable=0;points=[];autosize=1;strokeColor=none;fillColor=none;" parent="1" vertex="1">
                    <mxGeometry x="454.75" y="860" width="190" height="30" as="geometry"/>
                </mxCell>
                <mxCell id="79" value="" style="endArrow=open;endSize=12;dashed=1;html=1;" parent="1" edge="1">
                    <mxGeometry width="160" relative="1" as="geometry">
                        <mxPoint x="413.75" y="909" as="sourcePoint"/>
                        <mxPoint x="175" y="909" as="targetPoint"/>
                    </mxGeometry>
                </mxCell>
                <mxCell id="80" value="注文完了ページへリダイレクト" style="text;html=1;align=center;verticalAlign=middle;resizable=0;points=[];autosize=1;strokeColor=none;fillColor=none;" parent="1" vertex="1">
                    <mxGeometry x="205" y="876" width="190" height="30" as="geometry"/>
                </mxCell>
                <mxCell id="87" value="" style="endArrow=none;dashed=1;html=1;entryX=0.5;entryY=1;entryDx=0;entryDy=0;" parent="1" source="98" target="86" edge="1">
                    <mxGeometry width="50" height="50" relative="1" as="geometry">
                        <mxPoint x="425" y="1660" as="sourcePoint"/>
                        <mxPoint x="425" y="930" as="targetPoint"/>
                    </mxGeometry>
                </mxCell>
                <mxCell id="89" value="" style="endArrow=none;dashed=1;html=1;entryX=0.5;entryY=1;entryDx=0;entryDy=0;" parent="1" source="105" target="88" edge="1">
                    <mxGeometry width="50" height="50" relative="1" as="geometry">
                        <mxPoint x="675" y="1662" as="sourcePoint"/>
                        <mxPoint x="675" y="760" as="targetPoint"/>
                    </mxGeometry>
                </mxCell>
                <mxCell id="96" value="管理者ページから&lt;div&gt;商品一覧管理ページへ&lt;span style=&quot;background-color: transparent; color: light-dark(rgb(0, 0, 0), rgb(255, 255, 255));&quot;&gt;アクセス&lt;/span&gt;&lt;/div&gt;" style="text;html=1;align=center;verticalAlign=middle;resizable=0;points=[];autosize=1;strokeColor=none;fillColor=none;" parent="1" vertex="1">
                    <mxGeometry x="200.5" y="1120" width="190" height="40" as="geometry"/>
                </mxCell>
                <mxCell id="97" value="" style="endArrow=classic;html=1;" parent="1" edge="1">
                    <mxGeometry width="50" height="50" relative="1" as="geometry">
                        <mxPoint x="172.5" y="1155" as="sourcePoint"/>
                        <mxPoint x="418.5" y="1155" as="targetPoint"/>
                    </mxGeometry>
                </mxCell>
                <mxCell id="99" value="" style="endArrow=none;dashed=1;html=1;entryX=0.5;entryY=1;entryDx=0;entryDy=0;" parent="1" target="98" edge="1">
                    <mxGeometry width="50" height="50" relative="1" as="geometry">
                        <mxPoint x="425" y="1570" as="sourcePoint"/>
                        <mxPoint x="425" y="1090" as="targetPoint"/>
                    </mxGeometry>
                </mxCell>
                <mxCell id="98" value="" style="rounded=0;whiteSpace=wrap;html=1;" parent="1" vertex="1">
                    <mxGeometry x="417.25" y="1135" width="15" height="110" as="geometry"/>
                </mxCell>
                <mxCell id="100" value="" style="endArrow=open;endSize=12;dashed=1;html=1;" parent="1" edge="1">
                    <mxGeometry width="160" relative="1" as="geometry">
                        <mxPoint x="410.5" y="1234" as="sourcePoint"/>
                        <mxPoint x="170.5" y="1234" as="targetPoint"/>
                    </mxGeometry>
                </mxCell>
                <mxCell id="101" value="商品一覧管理ページを表示" style="text;html=1;align=center;verticalAlign=middle;resizable=0;points=[];autosize=1;strokeColor=none;fillColor=none;" parent="1" vertex="1">
                    <mxGeometry x="210.5" y="1204" width="170" height="30" as="geometry"/>
                </mxCell>
                <mxCell id="102" value="商品一覧管理ページから新規登録、&lt;div&gt;または商品編集ボタンをクリック&lt;/div&gt;" style="text;html=1;align=center;verticalAlign=middle;resizable=0;points=[];autosize=1;strokeColor=none;fillColor=none;" parent="1" vertex="1">
                    <mxGeometry x="184.75" y="1265" width="220" height="40" as="geometry"/>
                </mxCell>
                <mxCell id="103" value="" style="endArrow=classic;html=1;" parent="1" edge="1">
                    <mxGeometry width="50" height="50" relative="1" as="geometry">
                        <mxPoint x="171.75" y="1300" as="sourcePoint"/>
                        <mxPoint x="417.75" y="1300" as="targetPoint"/>
                    </mxGeometry>
                </mxCell>
                <mxCell id="104" value="" style="rounded=0;whiteSpace=wrap;html=1;" parent="1" vertex="1">
                    <mxGeometry x="417.5" y="1275" width="15" height="270" as="geometry"/>
                </mxCell>
                <mxCell id="106" value="" style="endArrow=none;dashed=1;html=1;entryX=0.5;entryY=1;entryDx=0;entryDy=0;" parent="1" target="105" edge="1">
                    <mxGeometry width="50" height="50" relative="1" as="geometry">
                        <mxPoint x="675" y="1570" as="sourcePoint"/>
                        <mxPoint x="675" y="1060" as="targetPoint"/>
                    </mxGeometry>
                </mxCell>
                <mxCell id="105" value="" style="rounded=0;whiteSpace=wrap;html=1;" parent="1" vertex="1">
                    <mxGeometry x="667.5" y="1295" width="15" height="230" as="geometry"/>
                </mxCell>
                <mxCell id="107" value="データベースから情報を取得" style="text;html=1;align=center;verticalAlign=middle;resizable=0;points=[];autosize=1;strokeColor=none;fillColor=none;" parent="1" vertex="1">
                    <mxGeometry x="461.88" y="1285" width="180" height="30" as="geometry"/>
                </mxCell>
                <mxCell id="108" value="" style="endArrow=classic;html=1;" parent="1" edge="1">
                    <mxGeometry width="50" height="50" relative="1" as="geometry">
                        <mxPoint x="434.38" y="1315" as="sourcePoint"/>
                        <mxPoint x="665.63" y="1315" as="targetPoint"/>
                    </mxGeometry>
                </mxCell>
                <mxCell id="109" value="取得した値を返す" style="text;html=1;align=center;verticalAlign=middle;resizable=0;points=[];autosize=1;strokeColor=none;fillColor=none;" parent="1" vertex="1">
                    <mxGeometry x="493.5" y="1328.5" width="120" height="30" as="geometry"/>
                </mxCell>
                <mxCell id="110" value="" style="endArrow=open;endSize=12;dashed=1;html=1;" parent="1" edge="1">
                    <mxGeometry width="160" relative="1" as="geometry">
                        <mxPoint x="663.5" y="1360.5" as="sourcePoint"/>
                        <mxPoint x="436" y="1360.5" as="targetPoint"/>
                    </mxGeometry>
                </mxCell>
                <mxCell id="111" value="商品登録・編集ページへリダイレクト" style="text;html=1;align=center;verticalAlign=middle;resizable=0;points=[];autosize=1;strokeColor=none;fillColor=none;" parent="1" vertex="1">
                    <mxGeometry x="180.5" y="1355" width="230" height="30" as="geometry"/>
                </mxCell>
                <mxCell id="112" value="" style="endArrow=open;endSize=12;dashed=1;html=1;" parent="1" edge="1">
                    <mxGeometry width="160" relative="1" as="geometry">
                        <mxPoint x="414" y="1387" as="sourcePoint"/>
                        <mxPoint x="174" y="1387" as="targetPoint"/>
                    </mxGeometry>
                </mxCell>
                <mxCell id="113" value="登録内容を入力" style="text;html=1;align=center;verticalAlign=middle;resizable=0;points=[];autosize=1;strokeColor=none;fillColor=none;" parent="1" vertex="1">
                    <mxGeometry x="236" y="1405" width="110" height="30" as="geometry"/>
                </mxCell>
                <mxCell id="114" value="" style="endArrow=classic;html=1;" parent="1" edge="1">
                    <mxGeometry width="50" height="50" relative="1" as="geometry">
                        <mxPoint x="168" y="1435" as="sourcePoint"/>
                        <mxPoint x="414" y="1435" as="targetPoint"/>
                    </mxGeometry>
                </mxCell>
                <mxCell id="115" value="データベースにレコードを追加" style="text;html=1;align=center;verticalAlign=middle;resizable=0;points=[];autosize=1;strokeColor=none;fillColor=none;" parent="1" vertex="1">
                    <mxGeometry x="460.75" y="1425" width="190" height="30" as="geometry"/>
                </mxCell>
                <mxCell id="116" value="" style="endArrow=classic;html=1;" parent="1" edge="1">
                    <mxGeometry width="50" height="50" relative="1" as="geometry">
                        <mxPoint x="432.75" y="1455" as="sourcePoint"/>
                        <mxPoint x="670" y="1455" as="targetPoint"/>
                    </mxGeometry>
                </mxCell>
                <mxCell id="119" value="追加した情報を商品一覧ページに反映" style="text;html=1;align=center;verticalAlign=middle;resizable=0;points=[];autosize=1;strokeColor=none;fillColor=none;" parent="1" vertex="1">
                    <mxGeometry x="438.5" y="1465" width="230" height="30" as="geometry"/>
                </mxCell>
                <mxCell id="120" value="" style="endArrow=open;endSize=12;dashed=1;html=1;" parent="1" edge="1">
                    <mxGeometry width="160" relative="1" as="geometry">
                        <mxPoint x="663.5" y="1497" as="sourcePoint"/>
                        <mxPoint x="436" y="1497" as="targetPoint"/>
                    </mxGeometry>
                </mxCell>
                <mxCell id="121" value="商品一覧管理ページへリダイレクト" style="text;html=1;align=center;verticalAlign=middle;resizable=0;points=[];autosize=1;strokeColor=none;fillColor=none;" parent="1" vertex="1">
                    <mxGeometry x="182.5" y="1495" width="220" height="30" as="geometry"/>
                </mxCell>
                <mxCell id="122" value="" style="endArrow=open;endSize=12;dashed=1;html=1;" parent="1" edge="1">
                    <mxGeometry width="160" relative="1" as="geometry">
                        <mxPoint x="411" y="1527" as="sourcePoint"/>
                        <mxPoint x="171" y="1527" as="targetPoint"/>
                    </mxGeometry>
                </mxCell>
                <mxCell id="123" value="" style="rounded=0;whiteSpace=wrap;html=1;" parent="1" vertex="1">
                    <mxGeometry x="667.5" y="1137" width="15" height="98" as="geometry"/>
                </mxCell>
                <mxCell id="124" value="サーバーにアクセス" style="text;html=1;align=center;verticalAlign=middle;resizable=0;points=[];autosize=1;strokeColor=none;fillColor=none;" parent="1" vertex="1">
                    <mxGeometry x="484.75" y="1145" width="130" height="30" as="geometry"/>
                </mxCell>
                <mxCell id="125" value="HTMLファイルを返す" style="text;html=1;align=center;verticalAlign=middle;resizable=0;points=[];autosize=1;strokeColor=none;fillColor=none;" parent="1" vertex="1">
                    <mxGeometry x="480" y="1180" width="140" height="30" as="geometry"/>
                </mxCell>
                <mxCell id="126" value="" style="endArrow=classic;html=1;entryX=0;entryY=0.25;entryDx=0;entryDy=0;" parent="1" edge="1">
                    <mxGeometry width="50" height="50" relative="1" as="geometry">
                        <mxPoint x="439.75" y="1175" as="sourcePoint"/>
                        <mxPoint x="667.25" y="1174.5" as="targetPoint"/>
                    </mxGeometry>
                </mxCell>
                <mxCell id="127" value="" style="endArrow=open;endSize=12;dashed=1;html=1;" parent="1" edge="1">
                    <mxGeometry width="160" relative="1" as="geometry">
                        <mxPoint x="660" y="1212" as="sourcePoint"/>
                        <mxPoint x="440" y="1212" as="targetPoint"/>
                    </mxGeometry>
                </mxCell>
                <mxCell id="130" value="" style="endArrow=none;dashed=1;html=1;strokeWidth=2;rounded=0;curved=0;fontColor=#99FFFF;strokeColor=#3333FF;" parent="1" target="129" edge="1">
                    <mxGeometry width="50" height="50" relative="1" as="geometry">
                        <mxPoint x="770" y="140" as="sourcePoint"/>
                        <mxPoint x="770" y="140" as="targetPoint"/>
                        <Array as="points">
                            <mxPoint x="770" y="320"/>
                            <mxPoint x="100" y="320"/>
                        </Array>
                    </mxGeometry>
                </mxCell>
                <mxCell id="129" value="メイン画面表示処理" style="rounded=0;whiteSpace=wrap;html=1;fillColor=#99CCFF;" parent="1" vertex="1">
                    <mxGeometry x="90" y="145" width="20" height="165" as="geometry"/>
                </mxCell>
                <mxCell id="134" value="" style="group" parent="1" vertex="1" connectable="0">
                    <mxGeometry x="90" y="330" width="680" height="140" as="geometry"/>
                </mxCell>
                <mxCell id="131" value="" style="endArrow=none;dashed=1;html=1;strokeWidth=2;rounded=0;curved=0;fontColor=#99FFFF;strokeColor=#3333FF;" parent="134" target="132" edge="1">
                    <mxGeometry width="50" height="50" relative="1" as="geometry">
                        <mxPoint x="680" as="sourcePoint"/>
                        <mxPoint x="680" y="20" as="targetPoint"/>
                        <Array as="points">
                            <mxPoint x="680" y="140"/>
                            <mxPoint x="340" y="140"/>
                            <mxPoint x="10" y="140"/>
                        </Array>
                    </mxGeometry>
                </mxCell>
                <mxCell id="132" value="ログイン処理" style="rounded=0;whiteSpace=wrap;html=1;fillColor=#99CCFF;" parent="134" vertex="1">
                    <mxGeometry y="15" width="20" height="105" as="geometry"/>
                </mxCell>
                <mxCell id="133" value="" style="endArrow=none;dashed=1;html=1;strokeWidth=2;rounded=0;curved=0;fontColor=#99FFFF;strokeColor=#3333FF;exitX=0.5;exitY=0;exitDx=0;exitDy=0;" parent="134" source="132" edge="1">
                    <mxGeometry width="50" height="50" relative="1" as="geometry">
                        <mxPoint x="10" y="20" as="sourcePoint"/>
                        <mxPoint x="680" as="targetPoint"/>
                        <Array as="points">
                            <mxPoint x="10"/>
                        </Array>
                    </mxGeometry>
                </mxCell>
                <mxCell id="135" value="" style="group" parent="1" vertex="1" connectable="0">
                    <mxGeometry x="90" y="490" width="680" height="150" as="geometry"/>
                </mxCell>
                <mxCell id="136" value="" style="endArrow=none;dashed=1;html=1;strokeWidth=2;rounded=0;curved=0;fontColor=#99FFFF;strokeColor=#3333FF;" parent="135" target="137" edge="1">
                    <mxGeometry width="50" height="50" relative="1" as="geometry">
                        <mxPoint x="680" as="sourcePoint"/>
                        <mxPoint x="680" y="21.428571428571427" as="targetPoint"/>
                        <Array as="points">
                            <mxPoint x="680" y="150"/>
                            <mxPoint x="340" y="150"/>
                            <mxPoint x="10" y="150"/>
                        </Array>
                    </mxGeometry>
                </mxCell>
                <mxCell id="137" value="カート追加処理" style="rounded=0;whiteSpace=wrap;html=1;fillColor=#99CCFF;" parent="135" vertex="1">
                    <mxGeometry y="16.07142857142857" width="20" height="112.5" as="geometry"/>
                </mxCell>
                <mxCell id="138" value="" style="endArrow=none;dashed=1;html=1;strokeWidth=2;rounded=0;curved=0;fontColor=#99FFFF;strokeColor=#3333FF;exitX=0.5;exitY=0;exitDx=0;exitDy=0;" parent="135" source="137" edge="1">
                    <mxGeometry width="50" height="50" relative="1" as="geometry">
                        <mxPoint x="10" y="21.428571428571427" as="sourcePoint"/>
                        <mxPoint x="680" as="targetPoint"/>
                        <Array as="points">
                            <mxPoint x="10"/>
                        </Array>
                    </mxGeometry>
                </mxCell>
                <mxCell id="139" value="" style="group" parent="1" vertex="1" connectable="0">
                    <mxGeometry x="90" y="650" width="680" height="150" as="geometry"/>
                </mxCell>
                <mxCell id="140" value="" style="endArrow=none;dashed=1;html=1;strokeWidth=2;rounded=0;curved=0;fontColor=#99FFFF;strokeColor=#3333FF;" parent="139" target="141" edge="1">
                    <mxGeometry width="50" height="50" relative="1" as="geometry">
                        <mxPoint x="680" as="sourcePoint"/>
                        <mxPoint x="680" y="21.428571428571427" as="targetPoint"/>
                        <Array as="points">
                            <mxPoint x="680" y="150"/>
                            <mxPoint x="340" y="150"/>
                            <mxPoint x="10" y="150"/>
                        </Array>
                    </mxGeometry>
                </mxCell>
                <mxCell id="141" value="注文&lt;div&gt;処理&lt;/div&gt;" style="rounded=0;whiteSpace=wrap;html=1;fillColor=#99CCFF;" parent="139" vertex="1">
                    <mxGeometry y="16.07142857142857" width="20" height="112.5" as="geometry"/>
                </mxCell>
                <mxCell id="142" value="" style="endArrow=none;dashed=1;html=1;strokeWidth=2;rounded=0;curved=0;fontColor=#99FFFF;strokeColor=#3333FF;exitX=0.5;exitY=0;exitDx=0;exitDy=0;" parent="139" source="141" edge="1">
                    <mxGeometry width="50" height="50" relative="1" as="geometry">
                        <mxPoint x="10" y="21.428571428571427" as="sourcePoint"/>
                        <mxPoint x="680" as="targetPoint"/>
                        <Array as="points">
                            <mxPoint x="10"/>
                        </Array>
                    </mxGeometry>
                </mxCell>
                <mxCell id="143" value="" style="group" parent="1" vertex="1" connectable="0">
                    <mxGeometry x="90" y="810" width="680" height="140" as="geometry"/>
                </mxCell>
                <mxCell id="144" value="" style="endArrow=none;dashed=1;html=1;strokeWidth=2;rounded=0;curved=0;fontColor=#99FFFF;strokeColor=#3333FF;" parent="143" target="145" edge="1">
                    <mxGeometry width="50" height="50" relative="1" as="geometry">
                        <mxPoint x="680" as="sourcePoint"/>
                        <mxPoint x="680" y="20" as="targetPoint"/>
                        <Array as="points">
                            <mxPoint x="680" y="140"/>
                            <mxPoint x="340" y="140"/>
                            <mxPoint x="10" y="140"/>
                        </Array>
                    </mxGeometry>
                </mxCell>
                <mxCell id="145" value="注文完了処理" style="rounded=0;whiteSpace=wrap;html=1;fillColor=#99CCFF;" parent="143" vertex="1">
                    <mxGeometry y="14.999999999999998" width="20" height="105" as="geometry"/>
                </mxCell>
                <mxCell id="146" value="" style="endArrow=none;dashed=1;html=1;strokeWidth=2;rounded=0;curved=0;fontColor=#99FFFF;strokeColor=#3333FF;exitX=0.5;exitY=0;exitDx=0;exitDy=0;" parent="143" source="145" edge="1">
                    <mxGeometry width="50" height="50" relative="1" as="geometry">
                        <mxPoint x="10" y="20" as="sourcePoint"/>
                        <mxPoint x="680" as="targetPoint"/>
                        <Array as="points">
                            <mxPoint x="10"/>
                        </Array>
                    </mxGeometry>
                </mxCell>
                <mxCell id="71" value="注文完了ボタンをクリック" style="text;html=1;align=center;verticalAlign=middle;resizable=0;points=[];autosize=1;strokeColor=none;fillColor=none;" parent="143" vertex="1">
                    <mxGeometry x="116.5" width="170" height="30" as="geometry"/>
                </mxCell>
                <mxCell id="70" value="" style="endArrow=classic;html=1;" parent="143" edge="1">
                    <mxGeometry width="50" height="50" relative="1" as="geometry">
                        <mxPoint x="78" y="28" as="sourcePoint"/>
                        <mxPoint x="324" y="28" as="targetPoint"/>
                    </mxGeometry>
                </mxCell>
                <mxCell id="76" value="注文金額を確定し、&lt;div&gt;データベースにレコード追加&lt;/div&gt;" style="text;html=1;align=center;verticalAlign=middle;resizable=0;points=[];autosize=1;strokeColor=none;fillColor=none;" parent="143" vertex="1">
                    <mxGeometry x="375.75" y="9.333333333333334" width="180" height="40" as="geometry"/>
                </mxCell>
                <mxCell id="75" value="" style="endArrow=classic;html=1;" parent="143" edge="1">
                    <mxGeometry width="50" height="50" relative="1" as="geometry">
                        <mxPoint x="342.25" y="42" as="sourcePoint"/>
                        <mxPoint x="576" y="42" as="targetPoint"/>
                    </mxGeometry>
                </mxCell>
                <mxCell id="72" value="" style="rounded=0;whiteSpace=wrap;html=1;" parent="143" vertex="1">
                    <mxGeometry x="327.5" y="7.5" width="15" height="120" as="geometry"/>
                </mxCell>
                <mxCell id="171" value="" style="group" vertex="1" connectable="0" parent="1">
                    <mxGeometry x="90" y="1200" width="680" height="160" as="geometry"/>
                </mxCell>
                <mxCell id="172" value="" style="endArrow=none;dashed=1;html=1;strokeWidth=2;rounded=0;curved=0;fontColor=#99FFFF;strokeColor=#3333FF;" edge="1" parent="171" target="173">
                    <mxGeometry width="50" height="50" relative="1" as="geometry">
                        <mxPoint x="680" y="-80" as="sourcePoint"/>
                        <mxPoint x="680" y="20" as="targetPoint"/>
                        <Array as="points">
                            <mxPoint x="680" y="370"/>
                            <mxPoint x="330" y="370"/>
                            <mxPoint x="10" y="370"/>
                        </Array>
                    </mxGeometry>
                </mxCell>
                <mxCell id="173" value="商品登録&lt;div&gt;・編集処理&lt;/div&gt;" style="rounded=0;whiteSpace=wrap;html=1;fillColor=#99CCFF;" vertex="1" parent="171">
                    <mxGeometry y="70" width="20" height="145" as="geometry"/>
                </mxCell>
                <mxCell id="174" value="" style="endArrow=none;dashed=1;html=1;strokeWidth=2;rounded=0;curved=0;fontColor=#99FFFF;strokeColor=#3333FF;exitX=0.5;exitY=0;exitDx=0;exitDy=0;" edge="1" parent="171" source="173">
                    <mxGeometry width="50" height="50" relative="1" as="geometry">
                        <mxPoint x="10" y="20" as="sourcePoint"/>
                        <mxPoint x="680" y="-80" as="targetPoint"/>
                        <Array as="points">
                            <mxPoint x="10" y="-80"/>
                        </Array>
                    </mxGeometry>
                </mxCell>
            </root>
        </mxGraphModel>
    </diagram>
</mxfile>